<?xml version="1.0" standalone="no"?>
<!DOCTYPE svg PUBLIC "-//W3C//DTD SVG 20010904//EN"
 "http://www.w3.org/TR/2001/REC-SVG-20010904/DTD/svg10.dtd">
<svg version="1.0" xmlns="http://www.w3.org/2000/svg"
 width="1040.000000pt" height="1040.000000pt" viewBox="0 0 1040.000000 1040.000000"
 preserveAspectRatio="xMidYMid meet">
<metadata>
Created by potrace 1.14, written by Peter Selinger 2001-2017
</metadata>
<g transform="translate(0.000000,1040.000000) scale(0.100000,-0.100000)"
fill="#000000" stroke="none">
<path d="M3390 7940 c-41 -33 -82 -66 -90 -73 -8 -7 -46 -38 -85 -68 -38 -29
-77 -59 -85 -66 -14 -11 -92 -73 -174 -138 -21 -16 -53 -42 -70 -57 -17 -15
-34 -28 -38 -28 -4 0 -14 -7 -23 -17 -9 -9 -56 -47 -103 -84 -48 -37 -97 -77
-109 -88 -12 -12 -27 -21 -32 -21 -5 0 -11 -4 -13 -8 -1 -5 -46 -42 -98 -82
-52 -41 -97 -77 -100 -80 -3 -3 -70 -57 -150 -120 -80 -63 -146 -118 -148
-122 -2 -4 -8 -8 -13 -8 -5 0 -17 -8 -28 -17 -10 -10 -33 -29 -52 -43 -18 -14
-51 -40 -73 -58 -53 -43 -62 -50 -116 -91 -25 -19 -49 -39 -55 -45 -5 -6 -39
-33 -75 -61 -36 -27 -66 -53 -68 -57 -2 -5 -8 -8 -13 -8 -5 0 -17 -8 -27 -17
-20 -19 -31 -28 -102 -83 -25 -19 -47 -37 -50 -40 -3 -3 -23 -19 -45 -36 -22
-16 -49 -37 -60 -46 -18 -15 -252 -201 -328 -261 -15 -12 -33 -27 -40 -32 -7
-6 -32 -26 -57 -45 -25 -19 -47 -37 -50 -40 -3 -3 -25 -21 -50 -40 -25 -19
-50 -39 -57 -45 -7 -5 -18 -15 -25 -20 -136 -107 -254 -202 -256 -207 -2 -5
-10 -8 -18 -8 -8 0 -14 -4 -14 -8 0 -5 -39 -38 -87 -75 -49 -36 -100 -78 -115
-92 -15 -14 -29 -25 -32 -25 -2 0 -15 -9 -28 -20 -12 -11 -49 -40 -81 -65
l-57 -46 57 -44 c32 -24 65 -50 73 -58 8 -7 37 -31 65 -53 27 -21 55 -43 62
-49 6 -5 22 -18 35 -28 13 -10 140 -111 284 -225 144 -114 276 -218 294 -232
18 -14 38 -30 44 -35 6 -6 29 -24 51 -40 21 -17 47 -37 56 -45 9 -8 40 -34 70
-57 48 -37 285 -225 364 -288 17 -13 41 -33 55 -44 31 -25 134 -106 185 -146
92 -73 171 -136 185 -148 8 -8 30 -25 49 -38 19 -13 42 -31 51 -39 8 -9 34
-29 55 -45 22 -17 45 -34 51 -40 6 -5 23 -19 38 -30 16 -11 35 -27 44 -35 8
-8 26 -22 39 -31 13 -9 41 -30 61 -47 20 -18 89 -73 152 -123 63 -50 131 -103
150 -119 19 -15 103 -81 185 -146 167 -131 160 -126 195 -155 14 -12 41 -33
60 -48 19 -14 37 -28 40 -31 4 -4 149 -119 205 -163 6 -4 21 -17 35 -28 14
-12 41 -33 60 -48 19 -14 40 -30 46 -36 23 -20 67 -50 74 -50 3 0 24 14 46 32
21 18 80 64 129 103 50 39 100 79 111 90 12 11 27 20 33 20 6 0 11 4 11 8 0 5
19 22 43 39 23 17 51 39 62 50 11 10 50 40 85 68 36 27 72 55 80 62 8 7 56 44
105 83 50 39 99 79 110 88 11 9 52 42 90 71 39 30 77 61 85 68 8 7 40 32 70
56 30 23 61 48 69 55 8 8 39 32 70 55 31 23 58 44 61 47 3 3 48 39 100 79 52
41 100 79 105 85 6 6 37 31 70 56 58 44 96 75 119 95 36 34 78 56 89 48 51
-40 213 -168 217 -172 3 -4 30 -25 61 -48 31 -23 62 -47 70 -55 8 -7 35 -29
59 -48 25 -19 52 -40 60 -47 8 -7 67 -53 130 -103 63 -50 122 -96 130 -103 8
-7 47 -36 85 -66 39 -30 75 -59 80 -65 6 -6 28 -24 50 -41 22 -16 45 -34 51
-40 6 -5 26 -21 44 -35 33 -25 312 -245 380 -300 196 -158 303 -239 310 -235
5 3 59 46 122 95 62 50 162 130 223 178 60 48 116 92 125 99 8 6 35 28 60 47
25 20 50 40 55 44 6 4 44 34 85 67 41 33 81 65 90 72 42 33 249 198 280 223
19 16 91 73 160 126 69 54 127 101 130 104 3 3 23 18 45 35 22 16 42 32 45 35
3 3 59 48 125 100 66 51 122 96 125 99 3 3 25 22 50 41 25 19 47 38 48 42 2 4
7 8 12 8 5 0 19 9 32 20 21 18 151 121 173 138 6 4 38 30 71 57 34 28 113 91
175 140 63 50 116 93 117 98 2 4 8 7 13 7 5 0 20 9 32 21 12 11 62 52 111 91
50 39 96 77 104 84 7 8 17 14 21 14 4 0 18 10 30 21 13 12 71 60 130 106 58
46 113 89 121 96 8 7 101 79 205 162 105 82 199 157 210 167 11 10 46 38 77
62 l57 43 -27 25 c-15 13 -52 42 -82 65 -30 22 -65 49 -77 59 -30 26 -53 45
-88 72 -16 13 -43 34 -60 47 -16 14 -82 65 -145 114 -63 50 -122 97 -130 104
-8 7 -37 31 -65 53 -27 21 -52 41 -55 44 -3 3 -23 18 -45 35 -22 16 -45 34
-51 40 -6 5 -26 21 -44 35 -18 14 -126 99 -240 190 -114 91 -222 176 -240 190
-18 14 -38 30 -44 35 -6 6 -24 21 -41 33 -16 13 -43 34 -60 47 -16 14 -59 48
-95 76 -36 28 -81 64 -100 79 -19 16 -75 60 -125 99 -49 40 -103 82 -120 95
-16 14 -40 33 -52 43 -12 10 -35 28 -50 40 -15 12 -37 29 -48 38 -11 8 -115
91 -231 183 -116 92 -226 178 -244 192 -32 25 -62 49 -89 71 -7 7 -34 28 -60
47 -25 20 -51 40 -57 46 -6 6 -26 22 -44 36 -81 61 -319 253 -345 278 -8 6
-16 12 -20 12 -6 0 -101 75 -115 90 -3 3 -44 36 -92 73 l-87 68 -23 -20 c-13
-10 -66 -53 -118 -94 -52 -42 -102 -82 -110 -89 -9 -8 -34 -27 -55 -43 -22
-17 -42 -32 -45 -35 -4 -4 -92 -74 -155 -123 -5 -4 -22 -17 -36 -30 -15 -12
-42 -33 -60 -47 -60 -46 -254 -199 -269 -213 -8 -8 -37 -30 -63 -50 -26 -20
-54 -42 -61 -49 -8 -7 -26 -22 -42 -33 -15 -11 -39 -30 -52 -42 -14 -13 -28
-23 -31 -23 -3 0 -22 -15 -42 -33 -19 -18 -60 -50 -90 -72 -30 -22 -56 -42
-59 -45 -12 -14 -402 -321 -413 -325 -6 -3 -51 26 -98 63 -302 237 -424 335
-427 344 -2 4 -10 8 -17 8 -7 0 -15 4 -17 8 -1 4 -37 34 -78 67 -41 33 -80 64
-87 70 -6 5 -26 21 -44 35 -27 20 -107 84 -199 157 -8 7 -67 53 -130 103 -63
50 -122 96 -130 103 -8 7 -47 36 -85 66 -39 30 -74 59 -80 65 -5 6 -28 24 -50
40 -22 17 -42 32 -45 35 -3 4 -25 22 -50 41 -25 19 -52 40 -60 47 -42 34 -143
113 -144 113 0 -1 -35 -27 -76 -60z"/>
</g>
</svg>
