<svg width="61" height="61" fill="none" xmlns="http://www.w3.org/2000/svg"><path d="M45 40c0 1.06-.398 2.078-1.106 2.828A3.674 3.674 0 0141.222 44H18.556L11 52V20c0-1.06.398-2.078 1.107-2.828A3.674 3.674 0 0114.777 16h26.445c1.002 0 1.963.421 2.672 1.172A4.122 4.122 0 0145 20v20z" stroke="#E87C40" stroke-width="5" stroke-linecap="round" stroke-linejoin="round"/><path d="M53 33c0 1.06-.398 2.078-1.106 2.828A3.674 3.674 0 0149.222 37H26.556L19 45V13c0-1.06.398-2.078 1.107-2.828A3.674 3.674 0 0122.776 9h26.445c1.002 0 1.963.421 2.672 1.172A4.122 4.122 0 0153 13v20z" stroke="#110303" stroke-width="5" stroke-linecap="round" stroke-linejoin="round"/></svg>