<svg width="61" height="61" fill="none" xmlns="http://www.w3.org/2000/svg"><path d="M25.477 47l-2.848-7.647H12.557L9.744 47H6l9.809-25.805H19.5L29.256 47h-3.78zm-3.85-10.775l-2.707-7.577c-.082-.257-.211-.644-.387-1.16l-.51-1.6a218.78 218.78 0 01-.404-1.37c-.117.48-.252.99-.404 1.529a47.18 47.18 0 01-.457 1.494c-.14.457-.258.826-.352 1.107l-2.742 7.577h7.963zM39.732 27.295c2.391 0 4.178.533 5.362 1.6 1.183 1.054 1.775 2.724 1.775 5.01V47h-2.531l-.686-2.813h-.14a10.105 10.105 0 01-1.688 1.758A6.021 6.021 0 0139.785 47c-.762.234-1.693.352-2.795.352-1.172 0-2.215-.211-3.129-.633A4.93 4.93 0 0131.7 44.82c-.515-.855-.773-1.94-.773-3.252 0-1.968.756-3.462 2.267-4.482 1.512-1.02 3.803-1.576 6.873-1.67l3.34-.14v-1.09c0-1.512-.34-2.579-1.02-3.2-.667-.62-1.605-.931-2.812-.931-.996 0-1.951.146-2.865.44a19.8 19.8 0 00-2.637 1.019l-1.125-2.567c.914-.468 1.951-.861 3.112-1.177a14.034 14.034 0 013.673-.475zm3.64 10.3l-2.708.124c-2.238.082-3.814.457-4.729 1.125-.902.656-1.353 1.576-1.353 2.76 0 1.03.31 1.787.932 2.267.62.48 1.441.72 2.46.72 1.57 0 2.86-.439 3.868-1.318 1.02-.89 1.53-2.203 1.53-3.937v-1.74z" fill="#E87C40"/><path d="M30.477 43l-2.848-7.647H17.557L14.744 43H11l9.809-25.805H24.5L34.256 43h-3.78zm-3.85-10.775l-2.707-7.577c-.082-.257-.211-.644-.387-1.16l-.51-1.6a218.78 218.78 0 01-.404-1.37c-.117.48-.252.99-.404 1.529a47.18 47.18 0 01-.457 1.494c-.14.457-.258.826-.352 1.107l-2.742 7.577h7.963zM44.732 23.295c2.391 0 4.178.533 5.362 1.6 1.183 1.054 1.775 2.724 1.775 5.01V43h-2.531l-.686-2.813h-.14a10.105 10.105 0 01-1.688 1.758A6.021 6.021 0 0144.785 43c-.762.234-1.693.352-2.795.352-1.172 0-2.215-.211-3.129-.633A4.93 4.93 0 0136.7 40.82c-.515-.855-.773-1.94-.773-3.252 0-1.968.756-3.462 2.267-4.482 1.512-1.02 3.803-1.576 6.873-1.67l3.34-.14v-1.09c0-1.512-.34-2.579-1.02-3.2-.667-.62-1.605-.931-2.812-.931-.996 0-1.951.146-2.865.44a19.8 19.8 0 00-2.637 1.019l-1.125-2.567c.914-.468 1.951-.861 3.112-1.177a14.034 14.034 0 013.673-.475zm3.64 10.3l-2.708.124c-2.238.082-3.814.457-4.729 1.125-.902.656-1.353 1.576-1.353 2.76 0 1.03.31 1.787.932 2.267.62.48 1.441.72 2.46.72 1.57 0 2.86-.439 3.868-1.318 1.02-.89 1.53-2.203 1.53-3.937v-1.74z" fill="#110303"/></svg>