<svg width="61" height="61" fill="none" xmlns="http://www.w3.org/2000/svg"><path d="M28.227 24.126C37.49 24.126 45 21.623 45 18.535s-7.51-5.591-16.773-5.591c-9.264 0-16.773 2.503-16.773 5.59 0 3.089 7.51 5.592 16.773 5.592zM45 31.58c0 3.095-7.455 5.592-16.773 5.592-9.319 0-16.773-2.497-16.773-5.591" stroke="#E87C40" stroke-width="4" stroke-linecap="round" stroke-linejoin="round"/><path d="M11.454 18.535v26.091c0 3.094 7.454 5.592 16.773 5.592C37.545 50.218 45 47.72 45 44.626V18.535" stroke="#E87C40" stroke-width="4" stroke-linecap="round" stroke-linejoin="round"/><path d="M38.227 17.126C47.49 17.126 55 14.623 55 11.535s-7.51-5.591-16.773-5.591c-9.264 0-16.773 2.503-16.773 5.59 0 3.089 7.51 5.592 16.773 5.592zM55 24.58c0 3.094-7.455 5.592-16.773 5.592-9.319 0-16.773-2.498-16.773-5.591" stroke="#110303" stroke-width="4" stroke-linecap="round" stroke-linejoin="round"/><path d="M21.454 11.535v26.091c0 3.094 7.454 5.592 16.773 5.592C47.545 43.218 55 40.72 55 37.626V11.535" stroke="#110303" stroke-width="4" stroke-linecap="round" stroke-linejoin="round"/></svg>