<svg width="180" height="43" viewBox="0 0 170 43" fill="none" xmlns="http://www.w3.org/2000/svg"><path d="M21.667 17.19L43.334 0 65 17.19 43.334 34.383 21.667 17.191z" fill="#fff"/><path d="M0 17.191L21.667.001l21.667 17.19-21.667 17.191L0 17.191zm79.967 18.758a4.89 4.89 0 01-.645 2.428c-.43.759-1.099 1.374-2.008 1.847-.903.473-2.07.71-3.502.71-.717 0-1.347-.033-1.891-.098a8.587 8.587 0 01-1.504-.311 12.22 12.22 0 01-1.45-.58v-3.781c.852.43 1.711.759 2.578.988.867.222 1.65.333 2.352.333.423 0 .767-.05 1.032-.15.272-.1.472-.237.601-.409.13-.179.194-.383.194-.612a.917.917 0 00-.29-.688c-.187-.193-.487-.393-.903-.601a48.931 48.931 0 00-1.643-.773 16.915 16.915 0 01-1.58-.838 5.65 5.65 0 01-1.203-.978 3.99 3.99 0 01-.762-1.3c-.18-.494-.269-1.078-.269-1.75 0-1.01.247-1.855.741-2.536.502-.687 1.196-1.203 2.084-1.547.896-.344 1.927-.515 3.094-.515 1.024 0 1.945.114 2.76.343.825.23 1.562.49 2.214.785l-1.3 3.276a13.183 13.183 0 00-1.987-.73 6.636 6.636 0 00-1.816-.28c-.365 0-.666.047-.902.14-.23.086-.401.204-.516.354a.865.865 0 00-.16.516.92.92 0 00.278.655c.194.194.513.405.957.634.45.222 1.063.512 1.836.87.767.344 1.418.716 1.956 1.117.537.394.945.87 1.224 1.429.287.551.43 1.235.43 2.052zm17.123-3.105c0 1.21-.147 2.313-.44 3.309-.287.988-.738 1.84-1.354 2.556-.616.717-1.407 1.268-2.374 1.655-.967.38-2.123.57-3.47.57-1.318 0-2.46-.19-3.427-.57-.96-.387-1.75-.935-2.374-1.644-.623-.716-1.085-1.572-1.385-2.567-.301-.996-.452-2.106-.452-3.33 0-1.633.269-3.051.806-4.254a6.02 6.02 0 012.514-2.804c1.131-.666 2.578-.999 4.34-.999 1.79 0 3.244.333 4.361 1a5.916 5.916 0 012.47 2.814c.523 1.21.785 2.631.785 4.264zm-10.807 0c0 .946.108 1.758.323 2.439.214.68.555 1.203 1.02 1.568.465.365 1.074.548 1.826.548.78 0 1.4-.183 1.859-.548.465-.365.798-.888.999-1.568.207-.68.311-1.493.311-2.439 0-1.418-.236-2.539-.709-3.362-.473-.824-1.285-1.235-2.438-1.235-.767 0-1.386.186-1.859.558-.465.373-.805.902-1.02 1.59-.208.688-.312 1.504-.312 2.45zm18.788-7.83c1.425 0 2.611.175 3.556.526.945.343 1.654.859 2.127 1.546.48.688.72 1.544.72 2.568 0 .637-.108 1.217-.323 1.74a4.427 4.427 0 01-.923 1.407 6.065 6.065 0 01-1.418 1.075l4.576 6.842h-4.813l-3.33-5.715h-1.074v5.715h-4.243V25.013h5.145zm-.064 3.211h-.838v3.588h.795c.652 0 1.185-.143 1.6-.43.416-.286.624-.798.624-1.536 0-.508-.172-.906-.516-1.192-.344-.287-.899-.43-1.665-.43zm24.503 4.62c0 1.21-.147 2.312-.441 3.308-.286.988-.737 1.84-1.353 2.556-.616.717-1.407 1.268-2.374 1.655-.967.38-2.124.57-3.47.57-1.318 0-2.46-.19-3.427-.57-.959-.387-1.751-.935-2.374-1.644-.623-.716-1.085-1.572-1.385-2.567-.301-.996-.452-2.106-.452-3.33 0-1.633.269-3.051.806-4.254a6.016 6.016 0 012.514-2.804c1.131-.666 2.578-.999 4.34-.999 1.79 0 3.244.333 4.361 1a5.919 5.919 0 012.471 2.814c.522 1.21.784 2.631.784 4.264zm-10.807 0c0 .945.108 1.757.322 2.438.215.68.555 1.203 1.021 1.568.465.365 1.074.548 1.826.548.781 0 1.4-.183 1.858-.548.466-.365.799-.888.999-1.568.208-.68.312-1.493.312-2.439 0-1.418-.236-2.539-.709-3.362-.473-.824-1.285-1.235-2.438-1.235-.767 0-1.386.186-1.859.558-.465.373-.806.902-1.02 1.59-.208.688-.312 1.504-.312 2.45zm27.06 7.873h-4.791l-3.105-6.005-1.257.752v5.253h-4.264V25.013h4.264v6.821c.179-.343.383-.687.613-1.03.236-.345.465-.67.687-.978l3.298-4.813h4.641l-4.953 7.036 4.867 8.67zm1.708 0V25.013h4.264v15.705h-4.264zm22.623 0h-5.565l-5.736-11.064h-.097c.036.336.068.741.097 1.214.029.472.054.956.075 1.45.022.487.032.927.032 1.321v7.08h-3.759V25.012h5.543l5.714 10.914h.065a80.945 80.945 0 01-.065-1.192l-.064-1.386a41.924 41.924 0 01-.022-1.235v-7.1h3.782v15.704z" fill="#3B557D"/></svg>