<svg width="1008" height="635" fill="none" xmlns="http://www.w3.org/2000/svg"><g filter="url(#filter0_f_181:202)"><ellipse cx="504.5" cy="586" rx="452.5" ry="5" fill="#000"/></g><path d="M99 28c0-14.912 12.088-27 27-27h760c14.912 0 27 12.088 27 27v522a3 3 0 01-3 3H102a3 3 0 01-3-3V28z" fill="#1A202C" stroke="#4A5568" stroke-width="2"/><path d="M103 27c0-12.15 9.85-22 22-22h762c12.15 0 22 9.85 22 22v506H103V27z" fill="#000"/><path d="M464.173 535.545V545h1.643v-6.509h.088l2.613 6.481h1.228l2.613-6.467h.087V545h1.644v-9.455h-2.096l-2.807 6.851h-.111l-2.806-6.851h-2.096zm13.748 9.598c1.112 0 1.777-.522 2.082-1.117h.055V545h1.607v-4.746c0-1.874-1.528-2.437-2.881-2.437-1.491 0-2.636.665-3.005 1.957l1.56.222c.166-.485.637-.9 1.454-.9.776 0 1.2.397 1.2 1.094v.027c0 .48-.503.504-1.754.637-1.376.148-2.691.559-2.691 2.156 0 1.394 1.02 2.133 2.373 2.133zm.434-1.228c-.698 0-1.196-.318-1.196-.932 0-.642.559-.91 1.306-1.016.439-.06 1.316-.171 1.533-.346v.835c0 .79-.637 1.459-1.643 1.459zm8.083 1.223c1.782 0 2.918-1.057 3.038-2.562h-1.598c-.143.762-.692 1.201-1.426 1.201-1.043 0-1.717-.873-1.717-2.322 0-1.432.687-2.29 1.717-2.29.803 0 1.297.517 1.426 1.2h1.598c-.116-1.537-1.316-2.548-3.047-2.548-2.078 0-3.389 1.5-3.389 3.665 0 2.147 1.279 3.656 3.398 3.656zm4.484-.138h1.643v-1.117h.097c.263.517.813 1.242 2.031 1.242 1.672 0 2.923-1.325 2.923-3.661 0-2.364-1.288-3.647-2.927-3.647-1.251 0-1.773.752-2.027 1.265h-.069v-3.537h-1.671V545zm1.639-3.545c0-1.376.591-2.267 1.666-2.267 1.113 0 1.685.946 1.685 2.267 0 1.329-.581 2.299-1.685 2.299-1.066 0-1.666-.924-1.666-2.299zm9.568 3.683c2.078 0 3.398-1.463 3.398-3.656 0-2.197-1.32-3.665-3.398-3.665-2.077 0-3.397 1.468-3.397 3.665 0 2.193 1.32 3.656 3.397 3.656zm.01-1.338c-1.15 0-1.713-1.025-1.713-2.322 0-1.298.563-2.336 1.713-2.336 1.131 0 1.694 1.038 1.694 2.336 0 1.297-.563 2.322-1.694 2.322zm7.9 1.338c2.077 0 3.397-1.463 3.397-3.656 0-2.197-1.32-3.665-3.397-3.665-2.078 0-3.398 1.468-3.398 3.665 0 2.193 1.32 3.656 3.398 3.656zm.009-1.338c-1.15 0-1.713-1.025-1.713-2.322 0-1.298.563-2.336 1.713-2.336 1.131 0 1.694 1.038 1.694 2.336 0 1.297-.563 2.322-1.694 2.322zm4.807 1.2h1.671v-2.382l.609-.651 2.17 3.033h1.999l-2.908-4.03 2.746-3.061h-1.952l-2.549 2.848h-.115v-5.212h-1.671V545zm10.7 0h1.712v-3.195h1.81c2.184 0 3.356-1.311 3.356-3.13 0-1.805-1.159-3.13-3.333-3.13h-3.545V545zm1.712-4.603v-3.42h1.57c1.283 0 1.851.692 1.851 1.698 0 1.007-.568 1.722-1.842 1.722h-1.579zm6.58 4.603h1.671v-4.169c0-.9.679-1.537 1.597-1.537.282 0 .633.051.776.097v-1.537a3.975 3.975 0 00-.6-.046c-.813 0-1.491.461-1.75 1.283h-.074v-1.182h-1.62V545zm7.955.138c2.078 0 3.398-1.463 3.398-3.656 0-2.197-1.32-3.665-3.398-3.665-2.077 0-3.397 1.468-3.397 3.665 0 2.193 1.32 3.656 3.397 3.656zm.01-1.338c-1.15 0-1.713-1.025-1.713-2.322 0-1.298.563-2.336 1.713-2.336 1.131 0 1.694 1.038 1.694 2.336 0 1.297-.563 2.322-1.694 2.322z" fill="#A0AEC0"/><path d="M0 552a2 2 0 012-2h1004c1.1 0 2 .895 2 2v16H0v-16z" fill="#A3ACB1"/><path d="M0 552a2 2 0 012-2h1004c1.1 0 2 .895 2 2v16H0v-16z" fill="url(#paint0_linear_181:202)"/><path d="M0 568h1008l-20.354 4.105a400.021 400.021 0 01-79.08 7.895H97.909a400.007 400.007 0 01-86.772-9.525L0 568z" fill="#647279"/><path d="M0 568h1008l-20.354 4.105a400.021 400.021 0 01-79.08 7.895H97.909a400.007 400.007 0 01-86.772-9.525L0 568z" fill="url(#paint1_linear_181:202)"/><path fill-rule="evenodd" clip-rule="evenodd" d="M421.033 550c.514 7.818 7.019 14 14.967 14h137c7.948 0 14.453-6.182 14.967-14H421.033z" fill="#96A1A8"/><path fill-rule="evenodd" clip-rule="evenodd" d="M421.033 550c.514 7.818 7.019 14 14.967 14h137c7.948 0 14.453-6.182 14.967-14H421.033z" fill="url(#paint2_linear_181:202)"/><defs><linearGradient id="paint0_linear_181:202" x1="0" y1="559" x2="1008" y2="559" gradientUnits="userSpaceOnUse"><stop stop-color="#0D1012"/><stop offset=".03" stop-color="#CAD4DB"/><stop offset=".063" stop-color="#242729"/><stop offset=".134" stop-color="#A3ACB1"/><stop offset=".866" stop-color="#A3ACB1"/><stop offset=".942" stop-color="#242729"/><stop offset=".971" stop-color="#CAD4DB"/><stop offset=".996" stop-color="#0D1012"/></linearGradient><linearGradient id="paint1_linear_181:202" x1="504" y1="568" x2="504" y2="580" gradientUnits="userSpaceOnUse"><stop stop-color="#7A7F83"/><stop offset="1" stop-color="#0B0B0E"/></linearGradient><linearGradient id="paint2_linear_181:202" x1="437.5" y1="558.5" x2="574.5" y2="558.5" gradientUnits="userSpaceOnUse"><stop stop-color="#3C3C3C"/><stop offset=".318" stop-color="#3C3C3C" stop-opacity="0"/><stop offset=".661" stop-color="#3C3C3C" stop-opacity="0"/><stop offset="1" stop-color="#444"/></linearGradient><filter id="filter0_f_181:202" x="8" y="537" width="993" height="98" filterUnits="userSpaceOnUse" color-interpolation-filters="sRGB"><feFlood flood-opacity="0" result="BackgroundImageFix"/><feBlend in="SourceGraphic" in2="BackgroundImageFix" result="shape"/><feGaussianBlur stdDeviation="22" result="effect1_foregroundBlur_181:202"/></filter></defs></svg>