<svg width="61" height="61" fill="none" xmlns="http://www.w3.org/2000/svg"><path d="M39.506 26.737L20.52 15.788M49 40.661V23.784a4.22 4.22 0 00-2.11-3.65l-14.768-8.439a4.218 4.218 0 00-4.219 0l-14.768 8.439a4.219 4.219 0 00-2.11 3.65V40.66a4.219 4.219 0 002.11 3.65l14.768 8.439a4.22 4.22 0 004.22 0L46.89 44.31a4.22 4.22 0 002.11-3.65z" stroke="#E87C40" stroke-width="4" stroke-linecap="round" stroke-linejoin="round"/><path d="M11.595 21.59l18.418 10.654L48.43 21.59M30.013 53.488V32.223" stroke="#E87C40" stroke-width="4" stroke-linecap="round" stroke-linejoin="round"/><path d="M46.506 19.737L27.52 8.788M56 33.661V16.784a4.22 4.22 0 00-2.11-3.65L39.122 4.695a4.22 4.22 0 00-4.219 0l-14.768 8.439a4.219 4.219 0 00-2.11 3.65V33.66a4.219 4.219 0 002.11 3.65l14.768 8.439a4.22 4.22 0 004.22 0L53.89 37.31a4.22 4.22 0 002.11-3.65z" stroke="#110303" stroke-width="4" stroke-linecap="round" stroke-linejoin="round"/><path d="M18.595 14.59l18.418 10.654L55.43 14.59M37.013 46.488V25.223" stroke="#110303" stroke-width="4" stroke-linecap="round" stroke-linejoin="round"/></svg>