<svg width="26" height="26" fill="none" xmlns="http://www.w3.org/2000/svg"><path d="M21.182 3.247c-.261.019-.517.08-.758.18h-.003c-.232.093-1.333.556-3.007 1.258L11.416 7.21c-4.303 1.812-8.534 3.596-8.534 3.596l.05-.02s-.291.096-.596.305a1.65 1.65 0 00-.476.46c-.15.22-.27.556-.225.903.073.586.453.938.726 1.132.276.197.54.289.54.289h.006l3.968 1.336c.177.572 1.209 3.961 1.456 4.742.147.467.289.758.467.98.086.115.187.21.308.286a.91.91 0 00.2.086l-.041-.01c.012.004.022.013.03.017.033.009.055.012.097.018.628.19 1.132-.2 1.132-.2l.029-.022 2.342-2.133 3.926 3.012.09.038c.818.36 1.646.16 2.084-.193.442-.355.613-.81.613-.81l.028-.073L22.67 5.408c.086-.384.108-.743.013-1.091a1.468 1.468 0 00-.634-.85 1.521 1.521 0 00-.867-.22zM21.1 4.912c-.004.052.006.046-.017.144v.01l-3.005 15.38c-.013.022-.035.07-.095.118-.063.05-.114.082-.378-.023l-4.802-3.682-2.9 2.644.61-3.892L18.357 8.3c.323-.3.215-.364.215-.364.023-.369-.488-.108-.488-.108l-9.893 6.129-.004-.017-4.741-1.596v-.004l-.013-.002a.235.235 0 00.025-.01l.026-.013.025-.009 8.538-3.596c2.154-.907 4.325-1.821 5.995-2.527 1.67-.7 2.904-1.215 2.974-1.243.067-.026.035-.026.083-.026z" fill="#fff"/></svg>