<svg width="26" height="26" fill="none" xmlns="http://www.w3.org/2000/svg"><path d="M18.116 15.232c-.276-.142-1.655-.818-1.912-.91-.256-.096-.444-.141-.63.143-.187.282-.72.909-.888 1.1-.162.187-.328.21-.604.07-1.646-.822-2.725-1.467-3.809-3.328-.287-.495.287-.46.823-1.529.091-.188.045-.348-.026-.49-.07-.142-.63-1.518-.863-2.08-.226-.545-.46-.469-.63-.48-.162-.01-.347-.01-.535-.01-.188 0-.49.072-.747.349-.256.281-.98.96-.98 2.335 0 1.377 1.003 2.71 1.14 2.898.142.188 1.973 3.01 4.784 4.227 1.777.767 2.473.833 3.361.7.541-.08 1.656-.675 1.887-1.332.231-.655.231-1.216.162-1.333-.068-.124-.256-.196-.533-.33z" fill="#fff"/><path d="M23.491 8.592a11.379 11.379 0 00-2.445-3.638 11.282 11.282 0 00-3.638-2.445A11.321 11.321 0 0013 1.625h-.05a11.349 11.349 0 00-8.037 3.362 11.272 11.272 0 00-2.417 3.626 11.379 11.379 0 00-.871 4.44 11.41 11.41 0 001.219 5.076v3.86c0 .644.523 1.167 1.168 1.167h3.862a11.41 11.41 0 005.075 1.219h.054c1.52 0 2.996-.294 4.384-.87a11.285 11.285 0 003.626-2.418 11.348 11.348 0 003.362-8.036 11.332 11.332 0 00-.884-4.459zm-3.836 11.121A9.395 9.395 0 0113 22.445h-.043a9.479 9.479 0 01-4.395-1.104l-.214-.114H4.773v-3.575l-.114-.214a9.48 9.48 0 01-1.104-4.395 9.387 9.387 0 012.732-6.698 9.374 9.374 0 016.672-2.79h.044a9.4 9.4 0 013.66.733 9.386 9.386 0 013.022 2.032 9.406 9.406 0 012.765 6.723 9.41 9.41 0 01-2.795 6.67z" fill="#fff"/></svg>